<?xml version="1.0" encoding="utf-8"?>
<COLLADA xmlns="http://www.collada.org/2005/11/COLLADASchema" version="1.4.1" xmlns:xsi="http://www.w3.org/2001/XMLSchema-instance">
  <asset>
    <contributor>
      <author>Blender User</author>
      <authoring_tool>Blender 4.4.0 commit date:2025-03-17, commit time:17:00, hash:05377985c527</authoring_tool>
    </contributor>
    <created>2025-04-15T21:03:45</created>
    <modified>2025-04-15T21:03:45</modified>
    <unit name="meter" meter="1"/>
    <up_axis>Z_UP</up_axis>
  </asset>
  <library_cameras>
    <camera id="Camera-camera" name="Camera">
      <optics>
        <technique_common>
          <perspective>
            <xfov sid="xfov">39.59775</xfov>
            <aspect_ratio>1.777778</aspect_ratio>
            <znear sid="znear">0.1</znear>
            <zfar sid="zfar">100</zfar>
          </perspective>
        </technique_common>
      </optics>
      <extra>
        <technique profile="blender">
          <shiftx sid="shiftx" type="float">0</shiftx>
          <shifty sid="shifty" type="float">0</shifty>
          <dof_distance sid="dof_distance" type="float">10</dof_distance>
        </technique>
      </extra>
    </camera>
  </library_cameras>
  <library_lights>
    <light id="Light-light" name="Light">
      <technique_common>
        <point>
          <color sid="color">1000 1000 1000</color>
          <constant_attenuation>1</constant_attenuation>
          <linear_attenuation>0</linear_attenuation>
          <quadratic_attenuation>0</quadratic_attenuation>
        </point>
      </technique_common>
      <extra>
        <technique profile="blender">
          <type sid="type" type="int">0</type>
          <flag sid="flag" type="int">0</flag>
          <mode sid="mode" type="int">2097153</mode>
          <red sid="red" type="float">1</red>
          <green sid="green" type="float">1</green>
          <blue sid="blue" type="float">1</blue>
          <energy sid="blender_energy" type="float">1000</energy>
          <spotsize sid="spotsize" type="float">75</spotsize>
          <spotblend sid="spotblend" type="float">0.15</spotblend>
          <clipsta sid="clipsta" type="float">0.04999995</clipsta>
          <clipend sid="clipend" type="float">40</clipend>
          <radius sid="radius" type="float">0.1</radius>
          <area_shape sid="area_shape" type="int">1</area_shape>
          <area_size sid="area_size" type="float">0.1</area_size>
          <area_sizey sid="area_sizey" type="float">0.1</area_sizey>
          <area_sizez sid="area_sizez" type="float">1</area_sizez>
        </technique>
      </extra>
    </light>
  </library_lights>
  <library_effects>
    <effect id="Shape_1253-effect">
      <profile_COMMON>
        <newparam sid="brick_texture_jpg_001-surface">
          <surface type="2D">
            <init_from>brick_texture</init_from>
          </surface>
        </newparam>
        <newparam sid="brick_texture_jpg_001-sampler">
          <sampler2D>
            <source>brick_texture</source>
          </sampler2D>
        </newparam>
        <technique sid="common">
          <lambert>
            <emission>
              <color sid="emission">0 0 0 1</color>
            </emission>
            <diffuse>
              <texture texture="brick_texture_jpg_001-sampler" texcoord="UVMap"/>
            </diffuse>
            <index_of_refraction>
              <float sid="ior">1.5</float>
            </index_of_refraction>
          </lambert>
        </technique>
      </profile_COMMON>
    </effect>
  </library_effects>
  <library_images>
    <image id="brick_texture_jpg_001" name="brick_texture_jpg_001">
      <init_from>brick_texture.jpg</init_from>
    </image>
  </library_images>
  <library_materials>
    <material id="Shape_1253-material" name="Shape.1253">
      <instance_effect url="#Shape_1253-effect"/>
    </material>
  </library_materials>
  <library_geometries>
    <geometry id="Shape_IndexedFaceSet_007-mesh" name="Shape_IndexedFaceSet.007">
      <mesh>
        <source id="Shape_IndexedFaceSet_007-mesh-positions">
          <float_array id="Shape_IndexedFaceSet_007-mesh-positions-array" count="192">0.602222 0.02198797 0.062316 0.602222 0.02198797 0.162316 0.602222 0.08198797 0.062316 0.602222 0.08198797 0.162316 0.812222 0.02198797 0.062316 0.812222 0.02198797 0.162316 0.812222 0.08198797 0.062316 0.812222 0.08198797 0.162316 -0.107778 0.02198797 -0.237684 -0.107778 0.02198797 -0.137684 -0.107778 0.08198797 -0.237684 -0.107778 0.08198797 -0.137684 0.102222 0.02198797 -0.237684 0.102222 0.02198797 -0.137684 0.102222 0.08198797 -0.237684 0.102222 0.08198797 -0.137684 0.602222 0.02198797 -0.237684 0.602222 0.02198797 -0.137684 0.602222 0.08198797 -0.237684 0.602222 0.08198797 -0.137684 0.812222 0.02198797 -0.237684 0.812222 0.02198797 -0.137684 0.812222 0.08198797 -0.237684 0.812222 0.08198797 -0.137684 -0.107778 0.02198797 -0.537684 -0.107778 0.02198797 -0.437684 -0.107778 0.08198797 -0.537684 -0.107778 0.08198797 -0.437684 0.102222 0.02198797 -0.537684 0.102222 0.02198797 -0.437684 0.102222 0.08198797 -0.537684 0.102222 0.08198797 -0.437684 0.602222 0.02198797 -0.537684 0.602222 0.02198797 -0.437684 0.602222 0.08198797 -0.537684 0.602222 0.08198797 -0.437684 0.812222 0.02198797 -0.537684 0.812222 0.02198797 -0.437684 0.812222 0.08198797 -0.537684 0.812222 0.08198797 -0.437684 -0.107778 0.02198797 -0.837684 -0.107778 0.02198797 -0.737684 -0.107778 0.08198797 -0.837684 -0.107778 0.08198797 -0.737684 0.102222 0.02198797 -0.837684 0.102222 0.02198797 -0.737684 0.102222 0.08198797 -0.837684 0.102222 0.08198797 -0.737684 0.602222 0.02198797 -0.837684 0.602222 0.02198797 -0.737684 0.602222 0.08198797 -0.837684 0.602222 0.08198797 -0.737684 0.812222 0.02198797 -0.837684 0.812222 0.02198797 -0.737684 0.812222 0.08198797 -0.837684 0.812222 0.08198797 -0.737684 -0.107778 0.02198797 0.062316 -0.107778 0.02198797 0.162316 -0.107778 0.08198797 0.062316 -0.107778 0.08198797 0.162316 0.102222 0.02198797 0.062316 0.102222 0.02198797 0.162316 0.102222 0.08198797 0.062316 0.102222 0.08198797 0.162316</float_array>
          <technique_common>
            <accessor source="#Shape_IndexedFaceSet_007-mesh-positions-array" count="64" stride="3">
              <param name="X" type="float"/>
              <param name="Y" type="float"/>
              <param name="Z" type="float"/>
            </accessor>
          </technique_common>
        </source>
        <source id="Shape_IndexedFaceSet_007-mesh-normals">
          <float_array id="Shape_IndexedFaceSet_007-mesh-normals-array" count="18">1 0 0 0 0 -1 -1 0 0 0 0 1 0 1 0 0 -1 0</float_array>
          <technique_common>
            <accessor source="#Shape_IndexedFaceSet_007-mesh-normals-array" count="6" stride="3">
              <param name="X" type="float"/>
              <param name="Y" type="float"/>
              <param name="Z" type="float"/>
            </accessor>
          </technique_common>
        </source>
        <source id="Shape_IndexedFaceSet_007-mesh-map-0">
          <float_array id="Shape_IndexedFaceSet_007-mesh-map-0-array" count="576">0.5142447 0.9 0.5142447 1 0.4857555 0.9 0.4857555 0.9 0.5142447 1 0.4857555 1 0.618705 0.53 0.7184172 0.53 0.618705 0.47 0.618705 0.47 0.7184172 0.53 0.7184172 0.47 0.5142447 1 0.5142447 0.9 0.4857555 1 0.4857555 1 0.5142447 0.9 0.4857555 0.9 0.7184172 0.53 0.618705 0.53 0.7184172 0.47 0.7184172 0.47 0.618705 0.53 0.618705 0.47 0.618705 0.9 0.618705 1 0.7184172 0.9 0.7184172 0.9 0.618705 1 0.7184172 1 0.618705 1 0.618705 0.9 0.7184172 1 0.7184172 1 0.618705 0.9 0.7184172 0.9 0.5142447 0.6 0.5142447 0.7000001 0.4857555 0.6 0.4857555 0.6 0.5142447 0.7000001 0.4857555 0.7000001 0.2815827 0.53 0.3812949 0.53 0.2815827 0.47 0.2815827 0.47 0.3812949 0.53 0.3812949 0.47 0.5142447 0.7000001 0.5142447 0.6 0.4857555 0.7000001 0.4857555 0.7000001 0.5142447 0.6 0.4857555 0.6 0.3812949 0.53 0.2815827 0.53 0.3812949 0.47 0.3812949 0.47 0.2815827 0.53 0.2815827 0.47 0.2815827 0.6 0.2815827 0.7000001 0.3812949 0.6 0.3812949 0.6 0.2815827 0.7000001 0.3812949 0.7000001 0.2815827 0.7000001 0.2815827 0.6 0.3812949 0.7000001 0.3812949 0.7000001 0.2815827 0.6 0.3812949 0.6 0.5142447 0.6 0.5142447 0.7000001 0.4857555 0.6 0.4857555 0.6 0.5142447 0.7000001 0.4857555 0.7000001 0.618705 0.53 0.7184172 0.53 0.618705 0.47 0.618705 0.47 0.7184172 0.53 0.7184172 0.47 0.5142447 0.7000001 0.5142447 0.6 0.4857555 0.7000001 0.4857555 0.7000001 0.5142447 0.6 0.4857555 0.6 0.7184172 0.53 0.618705 0.53 0.7184172 0.47 0.7184172 0.47 0.618705 0.53 0.618705 0.47 0.618705 0.6 0.618705 0.7000001 0.7184172 0.6 0.7184172 0.6 0.618705 0.7000001 0.7184172 0.7000001 0.618705 0.7000001 0.618705 0.6 0.7184172 0.7000001 0.7184172 0.7000001 0.618705 0.6 0.7184172 0.6 0.5142447 0.3 0.5142447 0.4 0.4857555 0.3 0.4857555 0.3 0.5142447 0.4 0.4857555 0.4 0.2815827 0.53 0.3812949 0.53 0.2815827 0.47 0.2815827 0.47 0.3812949 0.53 0.3812949 0.47 0.5142447 0.4 0.5142447 0.3 0.4857555 0.4 0.4857555 0.4 0.5142447 0.3 0.4857555 0.3 0.3812949 0.53 0.2815827 0.53 0.3812949 0.47 0.3812949 0.47 0.2815827 0.53 0.2815827 0.47 0.2815827 0.3 0.2815827 0.4 0.3812949 0.3 0.3812949 0.3 0.2815827 0.4 0.3812949 0.4 0.2815827 0.4 0.2815827 0.3 0.3812949 0.4 0.3812949 0.4 0.2815827 0.3 0.3812949 0.3 0.5142447 0.3 0.5142447 0.4 0.4857555 0.3 0.4857555 0.3 0.5142447 0.4 0.4857555 0.4 0.618705 0.53 0.7184172 0.53 0.618705 0.47 0.618705 0.47 0.7184172 0.53 0.7184172 0.47 0.5142447 0.4 0.5142447 0.3 0.4857555 0.4 0.4857555 0.4 0.5142447 0.3 0.4857555 0.3 0.7184172 0.53 0.618705 0.53 0.7184172 0.47 0.7184172 0.47 0.618705 0.53 0.618705 0.47 0.618705 0.3 0.618705 0.4 0.7184172 0.3 0.7184172 0.3 0.618705 0.4 0.7184172 0.4 0.618705 0.4 0.618705 0.3 0.7184172 0.4 0.7184172 0.4 0.618705 0.3 0.7184172 0.3 0.5142447 0 0.5142447 0.1 0.4857555 0 0.4857555 0 0.5142447 0.1 0.4857555 0.1 0.2815827 0.53 0.3812949 0.53 0.2815827 0.47 0.2815827 0.47 0.3812949 0.53 0.3812949 0.47 0.5142447 0.1 0.5142447 0 0.4857555 0.1 0.4857555 0.1 0.5142447 0 0.4857555 0 0.3812949 0.53 0.2815827 0.53 0.3812949 0.47 0.3812949 0.47 0.2815827 0.53 0.2815827 0.47 0.2815827 0 0.2815827 0.1 0.3812949 0 0.3812949 0 0.2815827 0.1 0.3812949 0.1 0.2815827 0.1 0.2815827 0 0.3812949 0.1 0.3812949 0.1 0.2815827 0 0.3812949 0 0.5142447 0 0.5142447 0.1 0.4857555 0 0.4857555 0 0.5142447 0.1 0.4857555 0.1 0.618705 0.53 0.7184172 0.53 0.618705 0.47 0.618705 0.47 0.7184172 0.53 0.7184172 0.47 0.5142447 0.1 0.5142447 0 0.4857555 0.1 0.4857555 0.1 0.5142447 0 0.4857555 0 0.7184172 0.53 0.618705 0.53 0.7184172 0.47 0.7184172 0.47 0.618705 0.53 0.618705 0.47 0.618705 0 0.618705 0.1 0.7184172 0 0.7184172 0 0.618705 0.1 0.7184172 0.1 0.618705 0.1 0.618705 0 0.7184172 0.1 0.7184172 0.1 0.618705 0 0.7184172 0 0.5142447 0.9 0.5142447 1 0.4857555 0.9 0.4857555 0.9 0.5142447 1 0.4857555 1 0.2815827 0.53 0.3812949 0.53 0.2815827 0.47 0.2815827 0.47 0.3812949 0.53 0.3812949 0.47 0.5142447 1 0.5142447 0.9 0.4857555 1 0.4857555 1 0.5142447 0.9 0.4857555 0.9 0.3812949 0.53 0.2815827 0.53 0.3812949 0.47 0.3812949 0.47 0.2815827 0.53 0.2815827 0.47 0.2815827 0.9 0.2815827 1 0.3812949 0.9 0.3812949 0.9 0.2815827 1 0.3812949 1 0.2815827 1 0.2815827 0.9 0.3812949 1 0.3812949 1 0.2815827 0.9 0.3812949 0.9</float_array>
          <technique_common>
            <accessor source="#Shape_IndexedFaceSet_007-mesh-map-0-array" count="288" stride="2">
              <param name="S" type="float"/>
              <param name="T" type="float"/>
            </accessor>
          </technique_common>
        </source>
        <vertices id="Shape_IndexedFaceSet_007-mesh-vertices">
          <input semantic="POSITION" source="#Shape_IndexedFaceSet_007-mesh-positions"/>
        </vertices>
        <triangles material="Shape_1253-material" count="96">
          <input semantic="VERTEX" source="#Shape_IndexedFaceSet_007-mesh-vertices" offset="0"/>
          <input semantic="NORMAL" source="#Shape_IndexedFaceSet_007-mesh-normals" offset="1"/>
          <input semantic="TEXCOORD" source="#Shape_IndexedFaceSet_007-mesh-map-0" offset="2" set="0"/>
          <p>6 0 0 7 0 1 4 0 2 4 0 3 7 0 4 5 0 5 2 1 6 6 1 7 0 1 8 0 1 9 6 1 10 4 1 11 3 2 12 2 2 13 1 2 14 1 2 15 2 2 16 0 2 17 7 3 18 3 3 19 5 3 20 5 3 21 3 3 22 1 3 23 2 4 24 3 4 25 6 4 26 6 4 27 3 4 28 7 4 29 1 5 30 0 5 31 5 5 32 5 5 33 0 5 34 4 5 35 14 0 36 15 0 37 12 0 38 12 0 39 15 0 40 13 0 41 10 1 42 14 1 43 8 1 44 8 1 45 14 1 46 12 1 47 11 2 48 10 2 49 9 2 50 9 2 51 10 2 52 8 2 53 15 3 54 11 3 55 13 3 56 13 3 57 11 3 58 9 3 59 10 4 60 11 4 61 14 4 62 14 4 63 11 4 64 15 4 65 9 5 66 8 5 67 13 5 68 13 5 69 8 5 70 12 5 71 22 0 72 23 0 73 20 0 74 20 0 75 23 0 76 21 0 77 18 1 78 22 1 79 16 1 80 16 1 81 22 1 82 20 1 83 19 2 84 18 2 85 17 2 86 17 2 87 18 2 88 16 2 89 23 3 90 19 3 91 21 3 92 21 3 93 19 3 94 17 3 95 18 4 96 19 4 97 22 4 98 22 4 99 19 4 100 23 4 101 17 5 102 16 5 103 21 5 104 21 5 105 16 5 106 20 5 107 30 0 108 31 0 109 28 0 110 28 0 111 31 0 112 29 0 113 26 1 114 30 1 115 24 1 116 24 1 117 30 1 118 28 1 119 27 2 120 26 2 121 25 2 122 25 2 123 26 2 124 24 2 125 31 3 126 27 3 127 29 3 128 29 3 129 27 3 130 25 3 131 26 4 132 27 4 133 30 4 134 30 4 135 27 4 136 31 4 137 25 5 138 24 5 139 29 5 140 29 5 141 24 5 142 28 5 143 38 0 144 39 0 145 36 0 146 36 0 147 39 0 148 37 0 149 34 1 150 38 1 151 32 1 152 32 1 153 38 1 154 36 1 155 35 2 156 34 2 157 33 2 158 33 2 159 34 2 160 32 2 161 39 3 162 35 3 163 37 3 164 37 3 165 35 3 166 33 3 167 34 4 168 35 4 169 38 4 170 38 4 171 35 4 172 39 4 173 33 5 174 32 5 175 37 5 176 37 5 177 32 5 178 36 5 179 46 0 180 47 0 181 44 0 182 44 0 183 47 0 184 45 0 185 42 1 186 46 1 187 40 1 188 40 1 189 46 1 190 44 1 191 43 2 192 42 2 193 41 2 194 41 2 195 42 2 196 40 2 197 47 3 198 43 3 199 45 3 200 45 3 201 43 3 202 41 3 203 42 4 204 43 4 205 46 4 206 46 4 207 43 4 208 47 4 209 41 5 210 40 5 211 45 5 212 45 5 213 40 5 214 44 5 215 54 0 216 55 0 217 52 0 218 52 0 219 55 0 220 53 0 221 50 1 222 54 1 223 48 1 224 48 1 225 54 1 226 52 1 227 51 2 228 50 2 229 49 2 230 49 2 231 50 2 232 48 2 233 55 3 234 51 3 235 53 3 236 53 3 237 51 3 238 49 3 239 50 4 240 51 4 241 54 4 242 54 4 243 51 4 244 55 4 245 49 5 246 48 5 247 53 5 248 53 5 249 48 5 250 52 5 251 62 0 252 63 0 253 60 0 254 60 0 255 63 0 256 61 0 257 58 1 258 62 1 259 56 1 260 56 1 261 62 1 262 60 1 263 59 2 264 58 2 265 57 2 266 57 2 267 58 2 268 56 2 269 63 3 270 59 3 271 61 3 272 61 3 273 59 3 274 57 3 275 58 4 276 59 4 277 62 4 278 62 4 279 59 4 280 63 4 281 57 5 282 56 5 283 61 5 284 61 5 285 56 5 286 60 5 287</p>
        </triangles>
      </mesh>
    </geometry>
  </library_geometries>
  <library_visual_scenes>
    <visual_scene id="Scene" name="Scene">
      <node id="Shape_IndexedFaceSet_007" name="Shape_IndexedFaceSet.007" type="NODE">
        <matrix sid="transform">1 0 0 -0.36 0 7.54979e-8 -1 -0.36 0 1 7.54979e-8 0 0 0 0 1</matrix>
        <instance_geometry url="#Shape_IndexedFaceSet_007-mesh" name="Shape_IndexedFaceSet.007">
          <bind_material>
            <technique_common>
              <instance_material symbol="Shape_1253-material" target="#Shape_1253-material">
                <bind_vertex_input semantic="UVMap" input_semantic="TEXCOORD" input_set="0"/>
              </instance_material>
            </technique_common>
          </bind_material>
        </instance_geometry>
      </node>
      <node id="Camera" name="Camera" type="NODE">
        <matrix sid="transform">0.6859207 -0.3240135 0.6515582 7.358891 0.7276763 0.3054208 -0.6141704 -6.925791 0 0.8953956 0.4452714 4.958309 0 0 0 1</matrix>
        <instance_camera url="#Camera-camera"/>
      </node>
      <node id="Light" name="Light" type="NODE">
        <matrix sid="transform">-0.2908646 -0.7711008 0.5663932 4.076245 0.9551712 -0.1998834 0.2183912 1.005454 -0.05518906 0.6045247 0.7946723 5.903862 0 0 0 1</matrix>
        <instance_light url="#Light-light"/>
      </node>
    </visual_scene>
  </library_visual_scenes>
  <scene>
    <instance_visual_scene url="#Scene"/>
  </scene>
</COLLADA>
